<svg xmlns="http://www.w3.org/2000/svg" xmlns:xlink="http://www.w3.org/1999/xlink" width="400" zoomAndPan="magnify" viewBox="0 0 300 195.000001" height="260" preserveAspectRatio="xMidYMid meet" version="1.0"><defs><clipPath id="57cfe700ef"><path d="M 227 14 L 235.308594 14 L 235.308594 23 L 227 23 Z M 227 14 " clip-rule="nonzero"/></clipPath><clipPath id="0732790fc5"><path d="M 64.4375 164 L 72 164 L 72 172 L 64.4375 172 Z M 64.4375 164 " clip-rule="nonzero"/></clipPath></defs><path fill="#364f66" d="M 83.804688 47.542969 C 83.585938 47.542969 83.40625 47.363281 83.40625 47.144531 L 83.40625 37.175781 C 83.40625 36.953125 83.585938 36.773438 83.804688 36.773438 C 84.027344 36.773438 84.207031 36.953125 84.207031 37.175781 L 84.207031 47.144531 C 84.207031 47.363281 84.027344 47.542969 83.804688 47.542969 Z M 83.804688 47.542969 " fill-opacity="1" fill-rule="nonzero"/><path fill="#364f66" d="M 80.238281 48.851562 C 80.019531 48.851562 79.839844 48.671875 79.839844 48.453125 L 79.839844 27.203125 C 79.839844 26.984375 80.019531 26.804688 80.238281 26.804688 C 80.457031 26.804688 80.636719 26.984375 80.636719 27.203125 L 80.636719 48.453125 C 80.636719 48.671875 80.457031 48.851562 80.238281 48.851562 Z M 80.238281 48.851562 " fill-opacity="1" fill-rule="nonzero"/><path fill="#364f66" d="M 76.480469 50.535156 C 76.261719 50.535156 76.082031 50.355469 76.082031 50.132812 L 76.082031 32.9375 C 76.082031 32.71875 76.261719 32.539062 76.480469 32.539062 C 76.703125 32.539062 76.878906 32.71875 76.878906 32.9375 L 76.878906 50.132812 C 76.878906 50.355469 76.703125 50.535156 76.480469 50.535156 Z M 76.480469 50.535156 " fill-opacity="1" fill-rule="nonzero"/><path fill="#364f66" d="M 72.46875 51.945312 C 72.25 51.945312 72.070312 51.765625 72.070312 51.546875 L 72.070312 42.160156 C 72.070312 41.9375 72.25 41.761719 72.46875 41.761719 C 72.6875 41.761719 72.867188 41.9375 72.867188 42.160156 L 72.867188 51.546875 C 72.867188 51.765625 72.6875 51.945312 72.46875 51.945312 Z M 72.46875 51.945312 " fill-opacity="1" fill-rule="nonzero"/><path fill="#364f66" d="M 231.710938 165.902344 C 231.492188 165.902344 231.3125 165.722656 231.3125 165.503906 L 231.3125 155.535156 C 231.3125 155.316406 231.492188 155.136719 231.710938 155.136719 C 231.929688 155.136719 232.109375 155.316406 232.109375 155.535156 L 232.109375 165.503906 C 232.109375 165.722656 231.929688 165.902344 231.710938 165.902344 Z M 231.710938 165.902344 " fill-opacity="1" fill-rule="nonzero"/><path fill="#364f66" d="M 228.140625 167.210938 C 227.921875 167.210938 227.742188 167.03125 227.742188 166.8125 L 227.742188 145.566406 C 227.742188 145.34375 227.921875 145.167969 228.140625 145.167969 C 228.359375 145.167969 228.539062 145.34375 228.539062 145.566406 L 228.539062 166.8125 C 228.539062 167.03125 228.359375 167.210938 228.140625 167.210938 Z M 228.140625 167.210938 " fill-opacity="1" fill-rule="nonzero"/><path fill="#364f66" d="M 224.386719 168.894531 C 224.167969 168.894531 223.988281 168.714844 223.988281 168.496094 L 223.988281 151.296875 C 223.988281 151.078125 224.167969 150.898438 224.386719 150.898438 C 224.605469 150.898438 224.785156 151.078125 224.785156 151.296875 L 224.785156 168.496094 C 224.785156 168.714844 224.605469 168.894531 224.386719 168.894531 Z M 224.386719 168.894531 " fill-opacity="1" fill-rule="nonzero"/><path fill="#364f66" d="M 220.375 170.304688 C 220.152344 170.304688 219.972656 170.125 219.972656 169.90625 L 219.972656 160.519531 C 219.972656 160.300781 220.152344 160.121094 220.375 160.121094 C 220.59375 160.121094 220.773438 160.300781 220.773438 160.519531 L 220.773438 169.90625 C 220.773438 170.125 220.59375 170.304688 220.375 170.304688 Z M 220.375 170.304688 " fill-opacity="1" fill-rule="nonzero"/><path fill="#364f66" d="M 113.0625 24.480469 C 113.054688 24.480469 113.046875 24.480469 113.039062 24.480469 C 112.820312 24.464844 112.652344 24.277344 112.664062 24.058594 C 112.671875 23.914062 112.898438 20.503906 114.902344 19.503906 C 115.960938 18.976562 117.269531 19.222656 118.789062 20.230469 C 118.863281 20.292969 121.769531 22.898438 123.851562 22.183594 C 124.910156 21.820312 125.621094 20.628906 125.96875 18.644531 C 126.007812 18.429688 126.191406 18.265625 126.429688 18.320312 C 126.648438 18.355469 126.789062 18.5625 126.753906 18.78125 C 126.351562 21.074219 125.460938 22.472656 124.109375 22.9375 C 121.570312 23.804688 118.429688 20.976562 118.300781 20.859375 C 117.082031 20.054688 116.042969 19.828125 115.257812 20.21875 C 113.667969 21.011719 113.460938 24.074219 113.457031 24.105469 C 113.445312 24.316406 113.273438 24.480469 113.0625 24.480469 Z M 113.0625 24.480469 " fill-opacity="1" fill-rule="nonzero"/><path fill="#364f66" d="M 181.105469 181.277344 C 181.097656 181.277344 181.089844 181.277344 181.082031 181.277344 C 180.863281 181.265625 180.695312 181.074219 180.710938 180.855469 C 180.71875 180.710938 180.941406 177.304688 182.945312 176.300781 C 184.003906 175.777344 185.308594 176.019531 186.832031 177.027344 C 186.910156 177.09375 189.804688 179.707031 191.894531 178.980469 C 192.957031 178.617188 193.667969 177.425781 194.011719 175.441406 C 194.050781 175.226562 194.242188 175.0625 194.472656 175.117188 C 194.691406 175.15625 194.835938 175.363281 194.800781 175.578125 C 194.398438 177.875 193.507812 179.273438 192.152344 179.734375 C 189.628906 180.605469 186.476562 177.777344 186.34375 177.65625 C 185.121094 176.851562 184.082031 176.625 183.300781 177.015625 C 181.710938 177.808594 181.503906 180.875 181.503906 180.90625 C 181.492188 181.117188 181.316406 181.277344 181.105469 181.277344 Z M 181.105469 181.277344 " fill-opacity="1" fill-rule="nonzero"/><g clip-path="url(#57cfe700ef)"><path fill="#364f66" d="M 234.917969 22.128906 C 234.699219 22.128906 234.519531 21.949219 234.519531 21.730469 L 234.519531 15.722656 C 233.1875 15.742188 229.046875 15.792969 228.214844 15.714844 C 228 15.695312 227.835938 15.5 227.855469 15.28125 C 227.878906 15.0625 228.0625 14.910156 228.289062 14.921875 C 229.207031 15.007812 234.851562 14.921875 234.910156 14.917969 C 235.011719 14.878906 235.121094 14.957031 235.195312 15.03125 C 235.273438 15.109375 235.316406 15.210938 235.316406 15.316406 L 235.316406 21.730469 C 235.316406 21.949219 235.136719 22.128906 234.917969 22.128906 Z M 234.917969 22.128906 " fill-opacity="1" fill-rule="nonzero"/></g><g clip-path="url(#0732790fc5)"><path fill="#364f66" d="M 71.488281 171.789062 C 71.269531 171.789062 71.089844 171.609375 71.089844 171.390625 L 71.089844 165.382812 C 69.761719 165.402344 65.617188 165.449219 64.789062 165.375 C 64.574219 165.355469 64.410156 165.160156 64.429688 164.941406 C 64.453125 164.722656 64.609375 164.5625 64.863281 164.582031 C 65.78125 164.664062 71.425781 164.578125 71.484375 164.578125 C 71.609375 164.539062 71.691406 164.617188 71.769531 164.695312 C 71.84375 164.769531 71.886719 164.871094 71.886719 164.976562 L 71.886719 171.390625 C 71.886719 171.609375 71.707031 171.789062 71.488281 171.789062 Z M 71.488281 171.789062 " fill-opacity="1" fill-rule="nonzero"/></g><path fill="#364f66" d="M 81.464844 111.398438 C 81.246094 111.398438 81.070312 111.21875 81.066406 111 L 81.023438 96.285156 C 81.011719 96.246094 81.003906 96.207031 81.003906 96.167969 L 80.964844 78.28125 C 80.945312 70.585938 86.367188 61.179688 93.050781 57.320312 L 169.742188 12.976562 C 169.933594 12.871094 170.175781 12.933594 170.285156 13.125 C 170.394531 13.316406 170.328125 13.558594 170.136719 13.667969 L 93.445312 58.011719 C 86.984375 61.746094 81.742188 70.835938 81.761719 78.28125 L 81.800781 96.046875 C 81.8125 96.082031 81.820312 96.125 81.820312 96.164062 L 81.863281 111 C 81.863281 111.21875 81.6875 111.398438 81.46875 111.398438 C 81.464844 111.398438 81.464844 111.398438 81.464844 111.398438 Z M 81.464844 111.398438 " fill-opacity="1" fill-rule="nonzero"/><path fill="#364f66" d="M 98.441406 191.335938 C 98.398438 191.335938 98.351562 191.328125 98.308594 191.316406 L 87.875 187.710938 C 83.949219 186.359375 81.292969 182.78125 81.261719 178.808594 L 81.261719 178.691406 L 81.085938 117.480469 C 81.085938 117.261719 81.261719 117.082031 81.480469 117.082031 C 81.484375 117.082031 81.484375 117.082031 81.484375 117.082031 C 81.703125 117.082031 81.878906 117.257812 81.882812 117.480469 L 82.0625 178.804688 C 82.085938 182.4375 84.527344 185.714844 88.136719 186.960938 L 96.839844 189.964844 C 95.804688 188.410156 95.558594 186.015625 95.558594 182.878906 L 107.441406 80.289062 L 100.214844 79.835938 C 99.992188 79.820312 99.828125 79.632812 99.84375 79.414062 C 100.230469 73.109375 102.324219 69.738281 107.84375 66.53125 L 195.835938 18.851562 C 195.996094 18.761719 196.199219 18.800781 196.320312 18.933594 C 197.640625 20.398438 198.71875 20.972656 199.554688 20.617188 C 201.996094 19.578125 202.554688 10.984375 202.175781 5.082031 L 196.921875 2.019531 C 194.785156 0.78125 191.914062 1.078125 188.839844 2.859375 L 174.484375 11.15625 C 174.300781 11.265625 174.054688 11.199219 173.945312 11.007812 C 173.832031 10.820312 173.898438 10.574219 174.089844 10.464844 L 188.441406 2.167969 C 191.773438 0.238281 194.925781 -0.0585938 197.320312 1.332031 L 202.757812 4.5 C 202.871094 4.566406 202.945312 4.6875 202.953125 4.820312 C 202.964844 4.964844 203.921875 19.628906 199.863281 21.351562 C 198.742188 21.824219 197.421875 21.269531 195.941406 19.699219 L 108.230469 67.226562 C 103.113281 70.199219 101.097656 73.328125 100.664062 79.0625 L 107.910156 79.515625 C 108.019531 79.523438 108.117188 79.574219 108.1875 79.660156 C 108.257812 79.742188 108.292969 79.851562 108.277344 79.960938 L 96.351562 182.925781 C 96.355469 186.71875 96.742188 189.503906 98.636719 190.59375 C 98.816406 190.695312 98.886719 190.914062 98.800781 191.105469 C 98.734375 191.25 98.589844 191.335938 98.441406 191.335938 Z M 98.441406 191.335938 " fill-opacity="1" fill-rule="nonzero"/><path fill="#1c323d" d="M 97.136719 190.9375 L 91.703125 187.773438 C 89.558594 186.523438 88.234375 183.875 88.226562 180.105469 L 87.925781 79.6875 L 114.4375 81.332031 L 102.519531 184.300781 C 102.527344 188.070312 95 189.6875 97.136719 190.9375 Z M 97.136719 190.9375 " fill-opacity="1" fill-rule="nonzero"/><path fill="#fbd46c" d="M 93.40625 100.738281 L 87.972656 97.574219 L 207.214844 28.632812 L 212.648438 31.792969 Z M 93.40625 100.738281 " fill-opacity="1" fill-rule="nonzero"/><path fill="#324566" d="M 93.40625 100.738281 L 212.648438 31.792969 L 212.898438 114.328125 C 212.921875 121.910156 207.597656 131.140625 201.011719 134.949219 L 105.621094 190.101562 C 99.035156 193.910156 93.679688 190.851562 93.65625 183.269531 Z M 93.40625 100.738281 " fill-opacity="1" fill-rule="nonzero"/><path fill="#26404f" d="M 212.898438 114.328125 C 212.917969 121.910156 207.597656 131.140625 201.007812 134.953125 L 105.617188 190.105469 C 99.035156 193.910156 93.679688 190.855469 93.660156 183.273438 L 93.421875 106.210938 C 98.972656 103.683594 105.09375 102.300781 111.179688 101.5625 C 120.207031 100.46875 129.339844 100.671875 138.40625 99.929688 C 144.394531 99.4375 151.628906 97.414062 152.925781 91.546875 C 153.519531 88.851562 152.609375 86.050781 152.847656 83.304688 C 153.289062 78.296875 157.574219 74.332031 162.277344 72.578125 C 166.972656 70.828125 172.113281 70.800781 177.125 70.511719 C 178.433594 70.433594 179.808594 70.316406 180.917969 69.613281 C 182.972656 68.308594 183.40625 65.484375 183.179688 63.058594 C 182.800781 58.914062 181.132812 54.855469 179.695312 50.839844 L 212.644531 31.796875 Z M 212.898438 114.328125 " fill-opacity="1" fill-rule="nonzero"/><path fill="#364f66" d="M 220.550781 109.765625 C 220.332031 109.765625 220.15625 109.589844 220.152344 109.367188 L 219.972656 57.839844 C 219.972656 57.617188 220.152344 57.4375 220.371094 57.4375 C 220.375 57.4375 220.375 57.4375 220.375 57.4375 C 220.59375 57.4375 220.769531 57.617188 220.773438 57.835938 L 220.949219 109.367188 C 220.949219 109.585938 220.773438 109.765625 220.554688 109.765625 C 220.550781 109.765625 220.550781 109.765625 220.550781 109.765625 Z M 220.550781 109.765625 " fill-opacity="1" fill-rule="nonzero"/><path fill="#364f66" d="M 220.351562 51.910156 C 220.128906 51.910156 219.953125 51.730469 219.953125 51.511719 L 219.902344 36.753906 C 219.902344 36.535156 220.078125 36.355469 220.296875 36.355469 C 220.300781 36.355469 220.300781 36.355469 220.300781 36.355469 C 220.519531 36.355469 220.695312 36.535156 220.699219 36.753906 L 220.75 51.511719 C 220.75 51.730469 220.570312 51.910156 220.351562 51.910156 Z M 220.351562 51.910156 " fill-opacity="1" fill-rule="nonzero"/><path fill="#d89a1e" d="M 209.121094 6.253906 C 209.535156 12.34375 209.15625 27.929688 202.59375 20.605469 L 114.613281 68.289062 C 108.03125 72.09375 106.707031 76.15625 106.726562 83.730469 L 93.40625 100.734375 L 87.972656 97.578125 L 87.925781 79.6875 C 87.898438 72.113281 93.226562 62.882812 99.808594 59.078125 L 195.195312 3.925781 C 198.511719 2.007812 201.511719 1.832031 203.6875 3.089844 Z M 209.121094 6.253906 " fill-opacity="1" fill-rule="nonzero"/><path fill="#fbd46c" d="M 200.632812 7.085938 C 207.21875 3.277344 212.578125 6.335938 212.597656 13.910156 L 212.648438 31.792969 L 93.40625 100.738281 L 93.355469 82.855469 C 93.335938 75.277344 98.65625 66.046875 105.242188 62.238281 Z M 200.632812 7.085938 " fill-opacity="1" fill-rule="nonzero"/><path fill="#f9c539" d="M 212.644531 31.796875 L 93.40625 100.734375 L 93.359375 82.855469 C 93.34375 77.976562 95.542969 72.410156 98.882812 68.046875 C 104.503906 66.238281 110.535156 65.597656 116.386719 64.503906 C 124 63.085938 131.949219 60.550781 136.84375 54.527344 C 138.828125 52.089844 140.195312 49.199219 142.136719 46.726562 C 145.199219 42.84375 149.6875 40.109375 154.542969 39.171875 C 160.460938 38.035156 167.441406 39.214844 171.777344 35.019531 C 174.304688 32.5625 175.289062 28.699219 178.160156 26.640625 C 182.320312 23.671875 188.761719 25.652344 192.632812 22.316406 C 195.960938 19.453125 195.46875 14.609375 195.625 9.984375 L 200.628906 7.089844 C 207.21875 3.277344 212.574219 6.332031 212.597656 13.914062 Z M 212.644531 31.796875 " fill-opacity="1" fill-rule="nonzero"/><path fill="#d89a1e" d="M 104.691406 74.777344 C 106.875 73.515625 108.664062 74.5 108.671875 77.011719 C 108.675781 79.519531 106.902344 82.601562 104.71875 83.867188 C 102.550781 85.117188 100.777344 84.089844 100.769531 81.578125 C 100.765625 79.066406 102.523438 76.027344 104.691406 74.777344 Z M 104.691406 74.777344 " fill-opacity="1" fill-rule="nonzero"/><path fill="#ffffff" d="M 106.359375 75.046875 C 108.539062 73.785156 110.328125 74.769531 110.335938 77.28125 C 110.34375 79.792969 108.566406 82.875 106.382812 84.136719 C 104.214844 85.386719 102.441406 84.359375 102.4375 81.847656 C 102.429688 79.335938 104.191406 76.300781 106.359375 75.046875 Z M 106.359375 75.046875 " fill-opacity="1" fill-rule="nonzero"/><path fill="#d89a1e" d="M 117.375 67.425781 C 119.558594 66.164062 121.347656 67.148438 121.355469 69.660156 C 121.363281 72.171875 119.585938 75.253906 117.402344 76.515625 C 115.234375 77.769531 113.460938 76.738281 113.457031 74.226562 C 113.449219 71.71875 115.210938 68.679688 117.375 67.425781 Z M 117.375 67.425781 " fill-opacity="1" fill-rule="nonzero"/><path fill="#ffffff" d="M 119.042969 67.695312 C 121.222656 66.433594 123.011719 67.421875 123.019531 69.929688 C 123.027344 72.441406 121.25 75.523438 119.066406 76.785156 C 116.902344 78.039062 115.128906 77.007812 115.121094 74.5 C 115.113281 71.988281 116.875 68.949219 119.042969 67.695312 Z M 119.042969 67.695312 " fill-opacity="1" fill-rule="nonzero"/><path fill="#d89a1e" d="M 130.0625 60.078125 C 132.242188 58.816406 134.03125 59.800781 134.039062 62.3125 C 134.046875 64.824219 132.269531 67.90625 130.085938 69.167969 C 127.917969 70.417969 126.148438 69.390625 126.140625 66.878906 C 126.132812 64.367188 127.894531 61.328125 130.0625 60.078125 Z M 130.0625 60.078125 " fill-opacity="1" fill-rule="nonzero"/><path fill="#ffffff" d="M 131.726562 60.347656 C 133.910156 59.085938 135.695312 60.070312 135.703125 62.582031 C 135.710938 65.09375 133.933594 68.175781 131.753906 69.4375 C 129.585938 70.691406 127.8125 69.660156 127.804688 67.148438 C 127.796875 64.636719 129.558594 61.601562 131.726562 60.347656 Z M 131.726562 60.347656 " fill-opacity="1" fill-rule="nonzero"/><path fill="#162830" d="M 132.804688 129.167969 C 132.835938 129.761719 132.671875 130.378906 132.308594 131.03125 C 131.945312 131.679688 131.484375 132.1875 130.9375 132.546875 C 129.707031 133.351562 128.484375 134.164062 127.261719 134.980469 C 127.433594 137.324219 127.609375 139.660156 127.78125 142 C 127.832031 142.652344 127.660156 143.34375 127.269531 144.082031 C 126.882812 144.804688 126.394531 145.371094 125.796875 145.777344 C 125.722656 145.828125 125.648438 145.875 125.578125 145.917969 C 125.074219 146.207031 124.628906 146.277344 124.242188 146.132812 C 123.792969 145.972656 123.542969 145.566406 123.484375 144.917969 C 123.277344 142.605469 123.066406 140.28125 122.863281 137.964844 C 117.949219 141.339844 113.042969 144.867188 108.15625 148.523438 C 107.992188 148.648438 107.832031 148.753906 107.671875 148.847656 C 107.09375 149.179688 106.558594 149.300781 106.066406 149.203125 C 105.4375 149.070312 105.066406 148.617188 104.945312 147.835938 C 104.921875 147.691406 104.902344 147.542969 104.878906 147.394531 C 104.773438 146.710938 104.878906 145.972656 105.195312 145.1875 C 109.320312 134.75 113.800781 124.207031 118.617188 113.597656 C 118.863281 113.027344 119.214844 112.46875 119.667969 111.921875 C 120.121094 111.371094 120.609375 110.917969 121.128906 110.5625 C 121.480469 110.324219 121.832031 110.078125 122.183594 109.84375 C 122.316406 109.753906 122.441406 109.671875 122.566406 109.601562 C 123.308594 109.171875 123.9375 109.039062 124.453125 109.203125 C 125.058594 109.390625 125.390625 109.921875 125.453125 110.78125 C 125.953125 117.453125 126.453125 124.128906 126.949219 130.796875 C 128.191406 129.96875 129.433594 129.148438 130.671875 128.335938 C 130.726562 128.300781 130.777344 128.269531 130.828125 128.242188 C 131.320312 127.957031 131.757812 127.882812 132.132812 128.035156 C 132.550781 128.199219 132.773438 128.574219 132.804688 129.167969 Z M 109.492188 143.105469 C 113.8125 139.90625 118.148438 136.808594 122.492188 133.824219 C 121.964844 127.980469 121.441406 122.140625 120.917969 116.300781 C 116.859375 125.292969 113.050781 134.238281 109.492188 143.105469 " fill-opacity="1" fill-rule="nonzero"/><path fill="#162830" d="M 160.085938 91.710938 C 162.417969 93.957031 163.410156 98.164062 163.183594 104.226562 C 162.953125 110.296875 161.625 115.703125 159.300781 120.449219 C 156.976562 125.191406 153.808594 128.664062 149.714844 131.027344 C 145.582031 133.414062 142.402344 133.609375 140.078125 131.546875 C 137.757812 129.492188 136.414062 125.621094 136.15625 119.832031 C 135.894531 114.050781 136.867188 108.714844 139.160156 103.796875 C 141.449219 98.894531 144.972656 94.996094 149.625 92.3125 C 154.238281 89.644531 157.757812 89.472656 160.085938 91.710938 Z M 158.644531 106.644531 C 158.757812 101.976562 158.074219 98.726562 156.519531 96.953125 C 154.972656 95.179688 152.65625 95.148438 149.636719 96.894531 C 146.609375 98.644531 144.304688 101.339844 142.769531 104.890625 C 141.230469 108.449219 140.554688 112.488281 140.6875 117.011719 C 140.824219 121.578125 141.695312 124.679688 143.25 126.371094 C 144.808594 128.054688 146.9375 128.097656 149.703125 126.5 C 152.476562 124.894531 154.597656 122.394531 156.136719 118.925781 C 157.675781 115.453125 158.53125 111.355469 158.644531 106.644531 " fill-opacity="1" fill-rule="nonzero"/><path fill="#162830" d="M 193.601562 95.832031 C 193.9375 96.132812 194.058594 96.613281 193.976562 97.269531 C 193.898438 97.917969 193.632812 98.539062 193.199219 99.136719 C 192.855469 99.597656 192.476562 99.949219 192.070312 100.183594 C 191.953125 100.25 191.839844 100.308594 191.71875 100.355469 C 190.5 100.847656 189.28125 101.351562 188.0625 101.855469 C 187.777344 104.449219 187.5 107.035156 187.210938 109.628906 C 187.128906 110.351562 186.859375 111.042969 186.382812 111.71875 C 185.992188 112.269531 185.570312 112.675781 185.105469 112.941406 C 185 113.003906 184.890625 113.058594 184.78125 113.105469 C 184.183594 113.359375 183.710938 113.332031 183.359375 113.011719 C 183 112.695312 182.855469 112.183594 182.925781 111.460938 C 183.175781 108.886719 183.425781 106.3125 183.671875 103.742188 C 178.769531 105.886719 173.855469 108.183594 168.929688 110.648438 C 168.160156 111.03125 167.511719 111.0625 166.992188 110.730469 C 166.472656 110.398438 166.230469 109.785156 166.269531 108.902344 C 166.28125 108.738281 166.285156 108.570312 166.292969 108.410156 C 166.332031 107.628906 166.558594 106.867188 166.980469 106.105469 C 172.492188 96.078125 178.34375 86.035156 184.515625 76.027344 C 184.832031 75.484375 185.238281 74.988281 185.730469 74.539062 C 186.074219 74.226562 186.425781 73.964844 186.785156 73.757812 C 186.941406 73.664062 187.105469 73.585938 187.265625 73.515625 C 187.613281 73.363281 187.964844 73.207031 188.3125 73.0625 C 189.21875 72.667969 189.925781 72.664062 190.414062 73.054688 C 190.902344 73.457031 191.09375 74.128906 190.988281 75.078125 C 190.179688 82.46875 189.375 89.847656 188.566406 97.238281 C 189.800781 96.714844 191.039062 96.207031 192.273438 95.707031 C 192.824219 95.484375 193.273438 95.527344 193.601562 95.832031 Z M 184.121094 99.140625 C 184.753906 92.644531 185.382812 86.15625 186.015625 79.660156 C 180.800781 88.15625 175.828125 96.675781 171.089844 105.195312 C 175.445312 103.054688 179.785156 101.042969 184.121094 99.140625 " fill-opacity="1" fill-rule="nonzero"/><path fill="#ffffff" d="M 136.539062 129.933594 C 136.570312 130.527344 136.402344 131.148438 136.042969 131.796875 C 135.679688 132.449219 135.21875 132.953125 134.671875 133.3125 C 133.441406 134.121094 132.21875 134.929688 130.992188 135.75 C 131.167969 138.089844 131.339844 140.425781 131.515625 142.769531 C 131.566406 143.421875 131.394531 144.113281 131 144.847656 C 130.613281 145.574219 130.125 146.136719 129.527344 146.546875 C 129.457031 146.597656 129.382812 146.640625 129.308594 146.683594 C 128.808594 146.972656 128.363281 147.042969 127.976562 146.898438 C 127.527344 146.738281 127.273438 146.335938 127.21875 145.6875 C 127.007812 143.371094 126.796875 141.050781 126.59375 138.730469 C 121.683594 142.109375 116.777344 145.632812 111.890625 149.292969 C 111.726562 149.414062 111.5625 149.523438 111.40625 149.613281 C 110.828125 149.949219 110.292969 150.070312 109.800781 149.96875 C 109.171875 149.839844 108.800781 149.386719 108.679688 148.601562 C 108.652344 148.457031 108.636719 148.3125 108.609375 148.160156 C 108.507812 147.476562 108.613281 146.742188 108.925781 145.953125 C 113.054688 135.515625 117.53125 124.972656 122.351562 114.363281 C 122.597656 113.796875 122.945312 113.234375 123.398438 112.691406 C 123.851562 112.140625 124.339844 111.683594 124.859375 111.332031 C 125.214844 111.09375 125.566406 110.847656 125.917969 110.609375 C 126.046875 110.519531 126.175781 110.441406 126.300781 110.367188 C 127.039062 109.941406 127.671875 109.804688 128.1875 109.972656 C 128.792969 110.15625 129.121094 110.691406 129.183594 111.546875 C 129.6875 118.222656 130.183594 124.898438 130.683594 131.566406 C 131.925781 130.738281 133.164062 129.917969 134.40625 129.101562 C 134.457031 129.070312 134.511719 129.039062 134.5625 129.007812 C 135.054688 128.722656 135.492188 128.652344 135.863281 128.804688 C 136.285156 128.96875 136.507812 129.339844 136.539062 129.933594 Z M 113.226562 143.875 C 117.546875 140.675781 121.878906 137.578125 126.222656 134.589844 C 125.699219 128.75 125.175781 122.910156 124.648438 117.066406 C 120.589844 126.0625 116.785156 135.003906 113.226562 143.875 " fill-opacity="1" fill-rule="nonzero"/><path fill="#ffffff" d="M 163.820312 92.480469 C 166.152344 94.722656 167.144531 98.933594 166.914062 104.996094 C 166.6875 111.066406 165.359375 116.472656 163.035156 121.214844 C 160.707031 125.957031 157.542969 129.433594 153.449219 131.792969 C 149.316406 134.183594 146.136719 134.375 143.808594 132.316406 C 141.488281 130.257812 140.144531 126.390625 139.890625 120.601562 C 139.628906 114.820312 140.601562 109.484375 142.894531 104.5625 C 145.183594 99.664062 148.707031 95.761719 153.355469 93.078125 C 157.972656 90.410156 161.492188 90.238281 163.820312 92.480469 Z M 162.378906 107.410156 C 162.492188 102.742188 161.804688 99.492188 160.253906 97.722656 C 158.703125 95.945312 156.390625 95.914062 153.371094 97.660156 C 150.34375 99.410156 148.035156 102.109375 146.503906 105.65625 C 144.964844 109.214844 144.289062 113.253906 144.421875 117.78125 C 144.558594 122.34375 145.429688 125.449219 146.984375 127.136719 C 148.542969 128.824219 150.671875 128.863281 153.433594 127.265625 C 156.210938 125.660156 158.332031 123.164062 159.871094 119.691406 C 161.410156 116.222656 162.265625 112.121094 162.378906 107.410156 " fill-opacity="1" fill-rule="nonzero"/><path fill="#ffffff" d="M 197.335938 96.601562 C 197.671875 96.902344 197.792969 97.382812 197.710938 98.035156 C 197.632812 98.683594 197.367188 99.308594 196.929688 99.902344 C 196.585938 100.363281 196.210938 100.714844 195.804688 100.953125 C 195.6875 101.015625 195.570312 101.074219 195.453125 101.121094 C 194.234375 101.613281 193.015625 102.117188 191.796875 102.625 C 191.511719 105.21875 191.230469 107.800781 190.945312 110.394531 C 190.863281 111.117188 190.589844 111.8125 190.113281 112.488281 C 189.726562 113.035156 189.300781 113.441406 188.839844 113.710938 C 188.734375 113.769531 188.625 113.824219 188.515625 113.871094 C 187.917969 114.128906 187.445312 114.097656 187.09375 113.78125 C 186.734375 113.464844 186.585938 112.949219 186.65625 112.226562 C 186.90625 109.65625 187.15625 107.082031 187.40625 104.507812 C 182.503906 106.65625 177.589844 108.953125 172.664062 111.414062 C 171.890625 111.800781 171.246094 111.828125 170.726562 111.496094 C 170.203125 111.164062 169.964844 110.554688 170.003906 109.671875 C 170.015625 109.507812 170.019531 109.339844 170.023438 109.175781 C 170.066406 108.398438 170.289062 107.632812 170.710938 106.875 C 176.226562 96.84375 182.078125 86.800781 188.25 76.792969 C 188.566406 76.253906 188.96875 75.757812 189.464844 75.304688 C 189.808594 74.992188 190.160156 74.730469 190.515625 74.523438 C 190.675781 74.433594 190.835938 74.351562 191 74.28125 C 191.34375 74.128906 191.699219 73.972656 192.042969 73.828125 C 192.953125 73.433594 193.65625 73.433594 194.148438 73.824219 C 194.632812 74.222656 194.828125 74.894531 194.722656 75.84375 C 193.914062 83.234375 193.109375 90.613281 192.296875 98.003906 C 193.535156 97.484375 194.769531 96.976562 196.007812 96.472656 C 196.554688 96.253906 197.003906 96.296875 197.335938 96.601562 Z M 187.855469 99.90625 C 188.488281 93.410156 189.113281 86.921875 189.75 80.425781 C 184.535156 88.925781 179.558594 97.445312 174.824219 105.960938 C 179.175781 103.824219 183.519531 101.808594 187.855469 99.90625 " fill-opacity="1" fill-rule="nonzero"/></svg>